Coordinates
version=1
nRows=8
nColumns=40
inDegrees=yes

Units are S.I. units (second, meters, Newtons, ...)
Angles are in degrees.

endheader
time	pelvis_tilt	pelvis_list	pelvis_rotation	pelvis_tx	pelvis_ty	pelvis_tz	hip_flexion_r	hip_adduction_r	hip_rotation_r	knee_angle_r	knee_angle_r_beta	ankle_angle_r	subtalar_angle_r	mtp_angle_r	hip_flexion_l	hip_adduction_l	hip_rotation_l	knee_angle_l	knee_angle_l_beta	ankle_angle_l	subtalar_angle_l	mtp_angle_l	lumbar_extension	lumbar_bending	lumbar_rotation	arm_flex_r	arm_add_r	arm_rot_r	elbow_flex_r	pro_sup_r	wrist_flex_r	wrist_dev_r	arm_flex_l	arm_add_l	arm_rot_l	elbow_flex_l	pro_sup_l	wrist_flex_l	wrist_dev_l
     13.28000000	     -4.01209449	     -6.04197943	     -0.63723457	      0.74725059	      0.92514352	      0.46320074	     18.55108680	      3.37510719	    -12.77763631	     17.33902754	     17.33902754	      4.04190532	     -3.13408092	     -4.94688088	      4.49134862	    -11.01709050	     -7.48022193	     37.76374694	     37.76374694	     11.32249252	    -13.01192510	    -13.45561277	     -8.48911233	      9.17933096	      1.26757100	      1.01268749	    -11.58578340	    -10.68740136	     29.30925522	     46.46627520	      0.00000000	      0.00000000	     11.26022234	    -11.07281019	    -10.52677044	     59.92292422	     47.53404626	      0.00000000	      0.00000000
     13.29314286	     -3.88539891	     -6.16719214	     -0.51162108	      0.74864509	      0.92613646	      0.46602044	     17.62469562	      3.72740466	    -12.92679308	     16.90911780	     16.90911780	      4.44348856	     -2.81544608	     -5.07676068	      6.00847003	    -11.76214519	     -6.73705028	     41.15708376	     41.15708376	      7.60355230	    -14.84243011	    -17.30062837	     -8.43084107	      9.14577789	      1.41465111	      1.93372694	    -11.79871245	     -9.90822097	     31.35990258	     46.31389307	      0.00000000	      0.00000000	     11.20252431	    -10.58948515	    -10.41674795	     56.00918959	     47.43251363	      0.00000000	      0.00000000
     13.30628571	     -3.73811286	     -6.36921301	     -0.33492667	      0.74978471	      0.92683308	      0.46876907	     16.76697386	      4.13261928	    -13.16300912	     16.61157939	     16.61157939	      4.88236168	     -2.56926049	     -5.17783212	      7.85510291	    -12.55617926	     -5.75592691	     45.13527622	     45.13527622	      5.22977921	    -15.48809074	    -17.39680420	     -8.47787930	      9.15855943	      1.25747485	      3.53226021	    -11.86782767	     -9.84465954	     32.38390544	     46.27770064	      0.00000000	      0.00000000	     10.17316461	    -10.39202598	    -10.20334410	     54.59097214	     47.38263270	      0.00000000	      0.00000000
     13.31942857	     -3.59163480	     -6.52145623	     -0.18471247	      0.75071293	      0.92731808	      0.47146118	     15.99488614	      4.47103146	    -13.33674660	     16.45639592	     16.45639592	      5.34165490	     -2.31792908	     -5.30212145	      9.76660430	    -13.20348965	     -4.65961268	     49.02708911	     49.02708911	      2.66178745	    -16.16415131	    -17.17103592	     -8.53524747	      9.06530339	      1.09307377	      5.18368537	    -11.90887145	     -9.69805570	     33.59545354	     46.22873059	      0.00000000	      0.00000000	      9.25519006	    -10.22037191	    -10.00199172	     52.77456752	     47.33001656	      0.00000000	      0.00000000
     13.33257143	     -3.51297551	     -6.56716874	     -0.05074442	      0.75131095	      0.92757769	      0.47394663	     15.43967154	      4.63931527	    -13.59467148	     16.54634633	     16.54634633	      5.96089347	     -1.94865989	     -5.12801600	     11.86695574	    -13.56227279	     -3.41312399	     52.90986643	     52.90986643	      0.67388840	    -16.60017968	    -14.96614152	     -8.51323432	      8.94897442	      1.60057841	      5.52429137	    -12.60730582	     -7.64680868	     37.42719455	     45.93501861	      0.00000000	      0.00000000	     10.02737379	     -9.67724760	     -9.55013899	     47.34244920	     47.18470469	      0.00000000	      0.00000000
     13.34571429	     -3.37441879	     -6.75474289	      0.09349732	      0.75173693	      0.92764617	      0.47642146	     14.83683579	      4.98406224	    -13.75477249	     16.61984055	     16.61984055	      6.43135465	     -1.85297310	     -5.26829498	     13.88599622	    -14.06332570	     -2.22609160	     56.47603116	     56.47603116	     -1.66124874	    -17.21567189	    -13.94250461	     -8.65001278	      8.90554918	      1.56288806	      7.32084840	    -12.71979287	     -7.60687599	     38.57610424	     45.89899582	      0.00000000	      0.00000000	      9.03722786	     -9.47347167	     -9.34533994	     46.11972239	     47.13805720	      0.00000000	      0.00000000
     13.35885714	     -3.36484108	     -6.69809357	      0.24753826	      0.75177963	      0.92752202	      0.47847931	     14.54983500	      4.97330204	    -13.99509127	     17.02386833	     17.02386833	      7.18040054	     -1.57342793	     -4.99122539	     16.25750929	    -13.98955621	     -0.84389936	     60.20440082	     60.20440082	     -1.57439383	    -16.90535282	     -6.88897098	     -8.60892541	      8.64803941	      1.68374199	      8.29325423	    -13.22769525	     -6.14265399	     41.81954028	     45.69582252	      0.00000000	      0.00000000	      9.25204440	     -9.19518793	     -8.86348303	     41.66708529	     47.01621432	      0.00000000	      0.00000000
     13.37200000	     -3.28052086	     -6.75707022	      0.42703233	      0.75171999	      0.92734755	      0.48052914	     14.16050567	      5.14172579	    -14.03986504	     17.33799294	     17.33799294	      7.78786404	     -1.71370660	     -4.98931796	     18.31595937	    -14.13566564	      0.23383199	     63.12457908	     63.12457908	     -2.76296031	    -17.53966021	     -4.13124780	     -8.71811566	      8.47873397	      1.30334813	     10.15746552	    -13.22263385	     -5.91265105	     43.84359338	     45.61874505	      0.00000000	      0.00000000	      8.29719380	     -9.15109385	     -8.61356980	     39.73394604	     46.95051502	      0.00000000	      0.00000000
